<svg width="712" height="712" viewBox="0 0 712 712" fill="none" xmlns="http://www.w3.org/2000/svg">
<g filter="url(#filter0_f_5_5)">
<ellipse cx="361" cy="610.5" rx="189" ry="16.5" fill="#313131"/>
</g>
<g clip-path="url(#clip0_5_5)">
<path d="M402.774 577.501L404.891 572.549C401.955 573.991 399.496 576.44 398.11 579.684C395.18 586.535 398.077 594.402 404.572 597.794C404.552 594.905 405.104 591.965 406.312 589.138C406.315 589.133 406.318 589.128 406.32 589.122C402.55 586.671 400.949 581.769 402.774 577.501Z" fill="#2A2C35"/>
<path d="M402.774 577.501C400.949 581.769 402.55 586.671 406.32 589.122C409.349 582.054 415.695 577.441 422.762 576.284L423.684 574.127L424.405 570.163L408.77 563.478L407.916 565.474L404.891 572.549L402.774 577.501Z" fill="#561F26"/>
<path d="M426.866 556.629L411.231 549.944L408.769 563.478L424.405 570.163L426.866 556.629Z" fill="#6D292F"/>
<path d="M266.09 523.241C263.5 529.298 257.188 532.605 250.963 531.668C252.92 529.744 254.547 527.422 255.693 524.743C255.787 524.522 255.853 524.297 255.939 524.075C258.627 517.177 257.543 509.698 253.62 503.969L250.351 511.615C251.418 514.985 251.34 518.735 249.841 522.241C246.517 530.016 237.519 533.624 229.745 530.3C221.97 526.976 218.362 517.979 221.686 510.204C223.184 506.698 225.841 504.051 229.015 502.493L232.283 494.847C225.211 496.005 218.859 500.624 215.833 507.702C211.127 518.709 216.235 531.446 227.242 536.152C233.086 538.651 239.407 538.36 244.765 535.912C244.905 535.976 245.035 536.053 245.178 536.114C255.363 540.468 267.15 535.742 271.505 525.556C274.305 519.006 273.334 511.804 269.587 506.333L266.562 513.408C267.549 516.527 267.476 519.997 266.09 523.241Z" fill="#1D1E21"/>
<path d="M250.963 531.668C257.188 532.605 263.5 529.299 266.09 523.241C267.476 519.997 267.549 516.527 266.562 513.408L264.445 518.36C262.945 521.868 259.536 523.997 255.939 524.075C255.853 524.297 255.787 524.522 255.693 524.743C254.547 527.422 252.919 529.744 250.963 531.668Z" fill="#2A2C35"/>
<path d="M254.542 501.812L253.62 503.969C257.543 509.698 258.627 517.177 255.939 524.075C259.536 523.997 262.945 521.868 264.445 518.36L266.562 513.408L269.587 506.332L270.44 504.337L256.91 498.552L254.542 501.812Z" fill="#561F26"/>
<path d="M256.91 498.552L270.44 504.337L278.524 493.207L264.994 487.422L256.91 498.552Z" fill="#6D292F"/>
<path d="M234.672 522.337L232.097 521.235C226.937 519.03 224.521 513.004 226.726 507.844L229.014 502.493C225.841 504.051 223.184 506.698 221.685 510.204C218.361 517.978 221.969 526.976 229.744 530.3C237.519 533.624 246.516 530.016 249.84 522.241C251.339 518.736 251.418 514.985 250.351 511.615L248.063 516.966C245.857 522.126 239.832 524.542 234.672 522.337Z" fill="#3E404C"/>
<path d="M226.727 507.844C224.521 513.004 226.937 519.03 232.097 521.235L234.672 522.337C239.832 524.543 245.857 522.126 248.063 516.967L250.351 511.615L253.62 503.969L254.542 501.812L233.206 492.69L232.283 494.847L229.014 502.493L226.727 507.844Z" fill="#6D292F"/>
<path d="M256.91 498.552L264.994 487.422L236.387 475.192L233.205 492.69L254.542 501.812L256.91 498.552Z" fill="#8A333A"/>
<path d="M440.32 603.678C436.995 611.453 427.998 615.061 420.223 611.737C412.448 608.413 408.84 599.416 412.164 591.641C413.663 588.135 416.32 585.488 419.493 583.93L422.762 576.284C415.696 577.442 409.349 582.054 406.32 589.122C406.318 589.128 406.314 589.133 406.312 589.139C405.103 591.965 404.552 594.905 404.571 597.794C398.076 594.402 395.18 586.535 398.109 579.684C399.496 576.441 401.955 573.991 404.891 572.549L407.916 565.474C401.371 566.546 395.494 570.819 392.694 577.369C388.339 587.555 393.066 599.341 403.251 603.696C404.063 604.043 404.887 604.312 405.715 604.546C407.614 610.201 411.804 615.06 417.721 617.589C428.728 622.295 441.465 617.187 446.171 606.18C449.197 599.102 448.148 591.32 444.099 585.406L440.83 593.052C441.897 596.422 441.818 600.173 440.32 603.678Z" fill="#1D1E21"/>
<path d="M420.223 611.737C427.998 615.061 436.995 611.453 440.319 603.678C441.818 600.173 441.897 596.422 440.83 593.052L438.542 598.404C436.336 603.563 430.31 605.979 425.151 603.774L422.575 602.672C417.416 600.467 415 594.441 417.205 589.281L419.493 583.93C416.32 585.488 413.663 588.135 412.165 591.641C408.84 599.415 412.448 608.413 420.223 611.737Z" fill="#3E404C"/>
<path d="M422.762 576.284L419.493 583.93L417.205 589.281C414.999 594.441 417.416 600.467 422.575 602.672L425.151 603.774C430.31 605.979 436.336 603.563 438.542 598.404L440.83 593.052L444.099 585.406L445.021 583.25L423.684 574.127L422.762 576.284Z" fill="#6D292F"/>
<path d="M424.405 570.163L423.684 574.127L445.021 583.25L455.473 568.859L426.866 556.629L424.405 570.163Z" fill="#8A333A"/>
<path d="M309.25 214.817L317.693 175.878C318.238 173.779 325.129 145.689 307.943 129.893L274.785 100.898L270.371 106.112L303.384 134.979C317.742 148.177 311.139 173.947 311.071 174.202L311.05 174.28L302.854 212.082L288.548 205.966L295.707 162.743C295.934 161.523 298.805 144.953 289.554 135.129C282.775 127.929 272.255 119.257 264.441 113.116L260.019 118.34C267.694 124.37 278.092 132.919 284.582 139.811C291.578 147.242 289.016 161.369 288.991 161.505L282.084 203.202L281.988 203.161L246.896 375.765C244.59 387.109 251.33 398.892 262.69 403.749C263.133 403.938 263.583 404.117 264.04 404.285L272.912 407.546L219.333 439.428C213.828 442.336 210.556 447.993 210.785 454.225C211.016 460.505 214.749 465.941 220.527 468.411L236.388 475.192L264.994 487.422L278.525 493.207L411.231 549.944L426.867 556.629L455.473 568.86L475.611 577.469C477.899 578.447 480.546 577.386 481.524 575.098C482.502 572.811 481.44 570.163 479.153 569.185L224.068 460.127C221.491 459.025 219.891 456.695 219.788 453.894C219.685 451.092 221.11 448.651 223.6 447.363L274.482 417.094L321.658 433.685C324.005 434.51 326.576 433.277 327.402 430.93C327.812 429.764 327.711 428.542 327.221 427.507L503.52 492.305C515.959 496.877 529.471 492.051 534.95 481.079L549.718 451.504L549.863 451.562L550.549 449.842L604.811 341.18L309.25 214.817ZM474.356 295.204L454.848 346.121L423.788 332.841L441.644 281.218L474.356 295.204ZM398.866 383.993L371.726 373.17L385.78 324.02L415.253 336.621L398.866 383.993ZM435.347 278.526L417.491 330.149L387.673 317.401L402.771 264.598L435.347 278.526ZM310.554 291.858L343.097 305.772L330.945 356.907L298.398 343.928L310.554 291.858ZM291.981 341.369L282.622 337.637L294.074 284.813L304.176 289.132L291.981 341.369ZM349.471 308.497L379.45 321.314L365.349 370.627L337.358 359.464L349.471 308.497ZM396.441 261.892L381.343 314.694L351.073 301.753L363.858 247.961L396.441 261.892ZM357.484 245.237L344.7 299.028L312.131 285.104L324.709 231.224L357.484 245.237ZM318.332 228.497L305.754 282.377L295.549 278.014L307.306 223.784L318.332 228.497ZM288.612 215.791L300.91 221.049L289.152 275.279L277.528 270.31L288.612 215.791ZM265.248 330.708L276.138 277.144L287.678 282.078L276.189 335.071L265.248 330.708ZM255.723 377.559L263.865 337.511L274.721 341.84L263.42 393.961C257.672 390.263 254.459 383.781 255.723 377.559ZM269.794 396.802L281.154 344.405L290.41 348.097L278.309 399.932L269.794 396.802ZM284.769 402.306L296.827 350.655L329.348 363.624L317.312 414.267L284.769 402.306ZM323.769 416.64L335.761 366.181L363.462 377.228L349.489 426.093L323.769 416.64ZM355.918 428.456L369.839 379.771L396.631 390.455L380.377 437.446L355.918 428.456ZM421.549 339.313L452.403 352.504L434.842 398.34L405.218 386.526L421.549 339.313ZM386.789 439.803L402.982 392.988L432.398 404.719L414.985 450.167L386.789 439.803ZM480.641 297.891L513.416 311.903L492.808 362.35L461.133 348.808L480.641 297.891ZM458.688 355.191L490.224 368.674L472.044 413.175L441.187 400.87L458.688 355.191ZM421.397 452.523L438.742 407.249L469.46 419.499L451.455 463.571L421.397 452.523ZM489.046 477.388L457.87 465.929L475.805 422.029L508.509 435.071L489.046 477.388ZM511.367 428.857L478.389 415.705L496.505 371.359L531.025 386.118L511.367 428.857ZM533.88 379.91L499.089 365.035L519.698 314.589L556.656 330.39L533.88 379.91ZM526.89 477.054C523.464 483.915 514.753 486.836 506.628 483.85L495.832 479.881L515.213 437.744L541.321 448.156L526.89 477.054ZM544.384 442.023L518.071 431.53L537.654 388.953L565.039 400.661L544.384 442.023ZM568.096 394.539L540.509 382.744L563.285 333.224L592.481 345.707L568.096 394.539Z" fill="#8CA0B5"/>
<path d="M270.371 106.112L274.785 100.898L277.452 97.7477C277.452 97.7477 265.658 86.8638 253.26 77.2598C246.706 72.1827 238.597 71.8848 233.59 77.4561C222.01 90.3398 231.381 101.132 231.381 101.132L256.136 122.927L260.018 118.34L264.441 113.117L270.371 106.112Z" fill="#8A333A"/>
</g>
<defs>
<filter id="filter0_f_5_5" x="154.4" y="576.4" width="413.2" height="68.2" filterUnits="userSpaceOnUse" color-interpolation-filters="sRGB">
<feFlood flood-opacity="0" result="BackgroundImageFix"/>
<feBlend mode="normal" in="SourceGraphic" in2="BackgroundImageFix" result="shape"/>
<feGaussianBlur stdDeviation="8.8" result="effect1_foregroundBlur_5_5"/>
</filter>
<clipPath id="clip0_5_5">
<rect width="542.239" height="542.239" fill="white" transform="translate(213.163) rotate(23.1486)"/>
</clipPath>
</defs>
</svg>
