<svg width="75" height="75" viewBox="0 0 75 75" fill="none" xmlns="http://www.w3.org/2000/svg">
<g clip-path="url(#clip0_7_301)">
<path opacity="0.4" d="M18.7792 39.369C19.9467 40.7705 19.7549 42.8753 18.3364 44.0568C16.9349 45.2243 14.8301 45.0325 13.6627 43.6309C12.4811 42.2125 12.6729 40.1077 14.0745 38.9403C15.4929 37.7587 17.5977 37.9505 18.7792 39.369ZM34.6033 58.366C35.7707 59.7676 35.579 61.8723 34.1605 63.0538C32.7589 64.2213 30.6542 64.0295 29.4867 62.628C28.3052 61.2095 28.497 59.1048 29.8986 57.9373C31.317 56.7558 33.4217 56.9476 34.6033 58.366Z" fill="black"/>
<path d="M40.344 8.39227L43.0908 12.926C43.4661 13.586 43.3466 14.4005 42.8147 14.9294L39.2994 18.401C38.7995 18.9032 38.76 19.6798 39.2101 20.2202L58.206 43.0251C59.064 44.0551 59.272 45.026 59.0579 46.3485C58.8438 47.6709 57.8277 48.7175 56.6896 49.408L44.276 57.031C41.8935 58.5008 38.8056 57.9838 37.0193 55.8392L21.6734 37.4163C19.8027 35.1704 19.9778 31.8782 22.0504 29.8372L39.1641 12.9505L37.4792 10.035C37.0347 9.26106 37.2995 8.23968 38.0734 7.79525C38.8642 7.33675 39.8687 7.61554 40.344 8.39227ZM47.3321 42.6725L43.4359 37.995C42.8451 37.2857 41.8237 37.1927 41.1145 37.7834C40.4221 38.3601 40.3122 39.3956 40.9029 40.1048L44.7992 44.7823C45.3899 45.4916 46.4282 45.5706 47.1206 44.9939C47.8298 44.4031 47.9229 43.3817 47.3321 42.6725Z" fill="black"/>
</g>
<defs>
<clipPath id="clip0_7_301">
<rect width="52.7451" height="52.7451" fill="white" transform="translate(40.527) rotate(50.2066)"/>
</clipPath>
</defs>
</svg>
