<svg width="237" height="75" viewBox="0 0 237 75" fill="none" xmlns="http://www.w3.org/2000/svg">
<g clip-path="url(#clip0_7_56)">
<path opacity="0.4" d="M18.7792 39.3689C19.9467 40.7705 19.7549 42.8752 18.3364 44.0568C16.9349 45.2242 14.8301 45.0325 13.6627 43.6309C12.4811 42.2124 12.6729 40.1077 14.0745 38.9402C15.4929 37.7587 17.5977 37.9505 18.7792 39.3689ZM34.6033 58.366C35.7707 59.7675 35.579 61.8723 34.1605 63.0538C32.7589 64.2213 30.6542 64.0295 29.4867 62.6279C28.3052 61.2095 28.497 59.1047 29.8986 57.9373C31.317 56.7558 33.4217 56.9475 34.6033 58.366Z" fill="black"/>
<path d="M40.344 8.39231L43.0908 12.9261C43.4661 13.586 43.3466 14.4006 42.8147 14.9295L39.2994 18.4011C38.7995 18.9032 38.76 19.6799 39.2101 20.2202L58.206 43.0251C59.064 44.0552 59.272 45.026 59.0579 46.3485C58.8438 47.671 57.8277 48.7175 56.6896 49.4081L44.276 57.0311C41.8935 58.5008 38.8056 57.9838 37.0193 55.8393L21.6734 37.4164C19.8027 35.1705 19.9778 31.8783 22.0504 29.8372L39.1641 12.9505L37.4792 10.035C37.0347 9.2611 37.2995 8.23971 38.0734 7.79528C38.8642 7.33679 39.8687 7.61558 40.344 8.39231ZM47.3321 42.6725L43.4359 37.995C42.8451 37.2858 41.8237 37.1927 41.1145 37.7835C40.4221 38.3602 40.3122 39.3956 40.9029 40.1049L44.7992 44.7824C45.3899 45.4916 46.4282 45.5706 47.1206 44.9939C47.8298 44.4031 47.9229 43.3817 47.3321 42.6725Z" fill="black"/>
</g>
<path d="M74.53 34.54L80.23 38.26C82.03 39.4 83.05 40.99 82.93 43.21C82.75 47.14 79.81 49.42 75.01 49.42C72.31 49.42 69.79 48.73 68.71 47.62C68.2 46.36 68.62 43.84 69.4 42.52H69.67C69.43 45.64 71.74 48.22 75.34 48.16C77.95 48.13 79.48 46.69 79.48 44.8C79.48 43.57 78.7 42.76 77.08 41.71L71.86 38.23C69.79 36.85 68.77 35.02 68.98 32.86C69.25 29.74 71.5 27.58 75.31 27.58C76.27 27.58 78.01 27.73 79.39 27.91H81.28L80.86 32.32H80.59C80.59 30.22 78.88 28.87 76.36 28.87C73.99 28.87 72.49 30.13 72.43 31.75C72.34 32.92 73.27 33.73 74.53 34.54ZM105.766 31.3H105.436C104.536 31.3 103.816 31.99 103.786 32.92V47.14C103.786 48.04 104.506 48.73 105.406 48.73H105.736V49.03H97.4859V48.73H97.8159C98.7159 48.73 99.4359 48.04 99.4659 47.14V40.63H91.5759V47.14C91.6059 48.04 92.3259 48.73 93.2259 48.73H93.5559V49.03H85.2759V48.73H85.6059C86.4759 48.73 87.2259 48.04 87.2259 47.11V32.92C87.2259 31.99 86.4759 31.3 85.6059 31.3H85.2759V31H93.5259V31.3H93.2259C92.3259 31.3 91.6059 31.99 91.5759 32.89V39.46H99.4659V32.92C99.4359 31.99 98.7159 31.3 97.8159 31.3H97.4859V31H105.766V31.3ZM118.132 30.64C124.492 30.64 128.752 34.21 128.752 40.03C128.752 45.82 124.492 49.39 118.132 49.39C111.772 49.39 107.512 45.82 107.512 40.03C107.512 34.21 111.772 30.64 118.132 30.64ZM118.132 48.22C121.792 48.22 124.132 45.07 124.132 40.03C124.132 34.96 121.792 31.81 118.132 31.81C114.502 31.81 112.132 34.96 112.132 40.03C112.132 45.07 114.502 48.22 118.132 48.22ZM130.481 31H139.361C144.161 31 146.231 33.19 146.321 35.98C146.501 40.75 141.671 43.3 137.741 40.66V40.39C137.741 40.39 140.681 40.72 141.581 37.36C141.701 36.85 141.761 36.22 141.761 35.77C141.701 33.58 140.381 32.2 138.161 32.2H136.781V47.14C136.811 48.04 137.471 48.73 138.431 48.73H138.791V49.03H130.481V48.73H130.841C131.741 48.73 132.431 48.04 132.461 47.14V32.89C132.461 31.99 131.741 31.3 130.841 31.3H130.481V31ZM156.55 49H148.03V48.7H148.39C149.32 48.7 150.1 48.04 150.1 47.11V32.92C150.1 31.99 149.32 31.3 148.39 31.3H148.03V31H156.52V31.3H156.19C155.23 31.3 154.48 31.99 154.45 32.89V47.14C154.48 48.04 155.23 48.7 156.19 48.7H156.55V49ZM176.043 41.5H176.283L176.643 46.03C175.473 47.92 173.013 49.39 169.113 49.39C162.423 49.36 158.283 45.94 158.283 40C158.283 34.12 162.333 30.64 169.113 30.64C171.843 30.64 174.273 31.24 175.863 31.99V36.76H175.623C174.603 33.07 172.383 31.81 169.413 31.81C165.063 31.81 162.873 35.05 162.873 39.94C162.873 44.92 165.183 48.1 169.113 48.22C173.373 48.22 175.293 46.39 176.043 41.5ZM187.546 30.19L195.586 47.05C196.156 48.25 197.116 48.73 197.956 48.73H198.166V49.03H189.346V48.73H189.586C190.276 48.73 191.056 48.13 190.606 47.05L189.436 44.32H183.106L181.906 47.08C181.486 48.16 182.266 48.73 182.926 48.73H183.166V49.03H177.196V48.73H177.436C178.186 48.73 179.146 48.28 179.716 47.14L185.896 33.82C186.106 33.37 187.216 31.03 187.306 30.19H187.546ZM183.616 43.12H188.956L186.286 36.88L183.616 43.12ZM198.543 31L207.753 31.03C211.083 31.03 214.293 32.2 214.293 35.92C214.293 38.05 213.093 40.36 210.123 40.78C211.323 41.14 212.462 42.4 213.033 43.33C213.273 43.78 214.143 45.28 215.193 46.66C216.393 48.28 217.053 48.7 218.283 48.7V49.03H215.763C212.523 49.03 210.993 48.4 209.553 46.15C208.893 45.07 207.813 43.06 207.543 42.04C207.033 40.78 206.313 40.24 205.743 40.21V39.97H206.523C207.753 39.94 209.133 39.49 209.643 36.97C209.703 36.73 209.763 36.28 209.733 35.71C209.613 32.74 207.573 32.32 206.553 32.26C205.773 32.23 205.173 32.26 204.843 32.26V47.11C204.843 48.13 205.653 48.73 206.463 48.73H206.793V49.03H198.543V48.73H198.873C199.743 48.73 200.463 48.04 200.493 47.14V32.86C200.463 31.99 199.773 31.3 198.903 31.3H198.543V31ZM234.113 30.52V35.29H233.813V35.02C233.813 33.31 232.823 32.2 231.053 32.2H227.603V47.14C227.603 48.04 228.353 48.73 229.253 48.73H229.553V49.03H221.273V48.73H221.603C222.503 48.73 223.223 48.04 223.253 47.11V32.2H219.773C218.033 32.2 217.043 33.31 217.043 35.02V35.29H216.743V30.52C217.223 30.73 218.753 31 219.893 31H230.963C232.073 31 233.723 30.73 234.113 30.52Z" fill="black"/>
<defs>
<clipPath id="clip0_7_56">
<rect width="52.7451" height="52.7451" fill="white" transform="translate(40.527) rotate(50.2066)"/>
</clipPath>
</defs>
</svg>
